# Blender 3.4.1
# www.blender.org
mtllib Modular Assets Project.mtl
o Plane.005
v 1.500000 3.500000 -5.000000
v 1.500000 7.000000 -4.999999
v -1.500000 3.500000 -5.000000
v -1.500000 7.000000 -4.999999
v 1.500000 6.867130 -4.999999
v -1.500000 6.867130 -4.999999
v 1.500000 6.867130 -4.899999
v 1.500000 7.000000 -4.899999
v -1.500000 6.867130 -4.899999
v -1.500000 7.000000 -4.899999
vn 1.0000 -0.0000 -0.0000
vn -0.0000 -0.0000 1.0000
vn -0.0000 -1.0000 -0.0000
vn -0.0000 1.0000 -0.0000
vn -1.0000 -0.0000 -0.0000
vt 1.357143 0.500000
vt 1.500000 0.500000
vt 1.357143 0.500000
vt 0.500000 0.500000
vt 0.500000 0.500000
vt 1.500000 0.500000
vt 1.462037 0.500000
vt 1.357143 1.462037
vt 1.357143 0.500000
vt 0.500000 1.462037
vt 0.500000 0.500000
vt 1.462037 0.500000
vt 1.462037 0.528571
vt 1.357143 1.462037
vt 1.357143 0.528571
vt 1.500000 0.528571
vt 1.357143 1.500000
vt 1.357143 0.528571
vt 0.500000 1.462037
vt 0.500000 0.528572
vt 1.462037 0.528572
vt 0.500000 1.500000
vt 0.500000 0.528572
vt 1.500000 0.528572
s 0
usemtl Material.001
f 6/10/2 3/4/2 1/1/2 5/8/2
usemtl Material.002
f 5/7/1 2/2/1 8/16/1 7/13/1
s 1
f 9/19/2 7/14/2 8/17/2 10/22/2
f 6/11/3 5/9/3 7/15/3 9/20/3
s 0
f 2/3/4 4/5/4 10/23/4 8/18/4
f 4/6/5 6/12/5 9/21/5 10/24/5
